solid Untitled-5fdca6cb
facet normal 0.4083617525782978 0.9104198415462711 -0.06615429804664011
  outer loop
    vertex 1243.5667427870335 2769.4638366627887 1107.002042513259
    vertex 1779.151961914786 2448.7925941502604 0.0
    vertex 621.7833713935172 2971.493500818643 49.16098752175943
  endloop
endfacet
facet normal 0.20475975856677248 0.49590743521404873 0.8438893629920343
  outer loop
    vertex 1243.5667427870335 1711.6227816712894 2818.624824184552
    vertex 0.0 1870.7110791327584 3026.874109167793
    vertex 621.7833713935154 855.8113908356414 3472.4065508643475
  endloop
endfacet
facet normal 0.7962654714629777 -0.1266182093316164 0.5915480775232871
  outer loop
    vertex 2633.9166285019264 202.0296641558509 2164.843097504758
    vertex 2012.133257108411 -653.7817266797988 2818.624824184552
    vertex 2621.349872596708 -851.7282043242893 1956.2066987911328
  endloop
endfacet
facet normal 0.8655029539439258 -0.4965161080612552 -0.06615429804663393
  outer loop
    vertex 2878.72834552912 -935.355539566418 0.0
    vertex 2633.9166285019264 -1509.5931175154503 1107.00204251326
    vertex 2249.6333713412378 -2038.513645011201 49.160987521760575
  endloop
endfacet
facet normal 0.40836175257829316 0.34798192777798564 0.8438893629920344
  outer loop
    vertex 1779.151961914753 578.0815150175193 3026.874109167793
    vertex 1243.5667427870335 1711.6227816712894 2818.624824184552
    vertex 621.7833713935154 855.8113908356414 3472.4065508643475
  endloop
endfacet
facet normal 0.38229132983019926 0.12421398276090281 0.9156550800510705
  outer loop
    vertex 1779.151961914753 578.0815150175193 3026.874109167793
    vertex 621.7833713935154 855.8113908356414 3472.4065508643475
    vertex 1006.0666285542147 -326.89086333990076 3472.4065508643444
  endloop
endfacet
facet normal 0.5870510883969687 0.4060416124922491 0.7003579288739641
  outer loop
    vertex 2249.633371341245 1384.7319183313923 2164.8430975047595
    vertex 1243.5667427870335 1711.6227816712894 2818.624824184552
    vertex 1779.151961914753 578.0815150175193 3026.874109167793
  endloop
endfacet
facet normal -0.7396700014675499 0.24033335218943616 0.6285922118149279
  outer loop
    vertex -2249.633371341231 1384.7319183313994 2164.843097504758
    vertex -2633.9166285019287 202.02966415586275 2164.8430975047595
    vertex -1779.151961914748 578.0815150175213 3026.874109167793
  endloop
endfacet
facet normal 0.9920514442664139 -0.10703990274135526 -0.06615429804664086
  outer loop
    vertex 3018.199885662619 326.89086333989434 49.16098752175943
    vertex 3018.199885662619 -326.89086333990167 1107.002042513259
    vertex 2878.72834552912 -935.355539566418 0.0
  endloop
endfacet
facet normal 0.5349102429007845 -0.0414942775419172 0.8438893629920325
  outer loop
    vertex 2012.133257108411 -653.7817266797988 2818.624824184552
    vertex 1779.151961914753 578.0815150175193 3026.874109167793
    vertex 1006.0666285542147 -326.89086333990076 3472.4065508643444
  endloop
endfacet
facet normal 0.5870510883969641 -0.8080065044625213 -0.04996507138189006
  outer loop
    vertex 1779.1519619147455 -2448.7925941502913 1156.1630300350205
    vertex 1243.5667427870262 -2769.463836662794 49.16098752175943
    vertex 2249.6333713412378 -2038.513645011201 49.160987521760575
  endloop
endfacet
facet normal 0.9920514442664149 0.10703990274134748 0.06615429804663604
  outer loop
    vertex 2878.728345529135 935.3555395663697 1156.1630300350205
    vertex 3018.199885662619 -326.89086333990167 1107.002042513259
    vertex 3018.199885662619 326.89086333989434 49.16098752175943
  endloop
endfacet
facet normal -0.9219039611125587 -0.2995447550006056 0.24569498618531305
  outer loop
    vertex -3018.1998856626215 -326.89086333988706 1107.00204251326
    vertex -2633.9166285019287 -1509.5931175154356 1107.002042513259
    vertex -2621.349872596707 -851.7282043242893 1956.2066987911328
  endloop
endfacet
facet normal -0.20328734654821984 -0.9032951265970383 0.37779911196219734
  outer loop
    vertex -1006.0666285542153 -2442.5729733228973 2164.8430975047595
    vertex -621.7833713935245 -2971.493500818648 1107.00204251326
    vertex 0.0 -2756.2503675472317 1956.2066987911328
  endloop
endfacet
facet normal -3.5149206544714686e-16 0.21374896556109022 0.9768886219634069
  outer loop
    vertex 621.7833713935154 855.8113908356414 3472.4065508643475
    vertex -621.7833713935154 855.8113908356414 3472.4065508643466
    vertex 0.0 0.0 3659.663107439707
  endloop
endfacet
facet normal 0.7135995787194596 0.01656540717234645 0.700357928873961
  outer loop
    vertex 1779.151961914753 578.0815150175193 3026.874109167793
    vertex 2012.133257108411 -653.7817266797988 2818.624824184552
    vertex 2633.9166285019264 202.0296641558509 2164.843097504758
  endloop
endfacet
facet normal 0.8233201238364357 0.48281007571647505 0.2983930369036922
  outer loop
    vertex 2249.633371341245 2038.5136450111863 1107.00204251326
    vertex 2249.633371341245 1384.7319183313923 2164.8430975047595
    vertex 2878.728345529135 935.3555395663697 1156.1630300350205
  endloop
endfacet
facet normal -0.4083617525782986 -0.9104198415462709 0.06615429804664061
  outer loop
    vertex -1779.1519619147641 -2448.7925941502767 1156.1630300350205
    vertex -1243.5667427870394 -2769.463836662794 49.160987521760575
    vertex -621.7833713935245 -2971.493500818648 1107.00204251326
  endloop
endfacet
facet normal 0.7396700014675545 0.2403333521894248 0.6285922118149269
  outer loop
    vertex 2249.633371341245 1384.7319183313923 2164.8430975047595
    vertex 1779.151961914753 578.0815150175193 3026.874109167793
    vertex 2633.9166285019264 202.0296641558509 2164.843097504758
  endloop
endfacet
facet normal 0.20475975856677592 0.9765741395929102 0.0661542980466359
  outer loop
    vertex 1.277263992169454e-11 3026.874109167803 1156.1630300350205
    vertex 1243.5667427870335 2769.4638366627887 1107.002042513259
    vertex 621.7833713935172 2971.493500818643 49.16098752175943
  endloop
endfacet
facet normal 0.3822913298301962 -0.8745369830167563 0.2983930369036955
  outer loop
    vertex 1006.0666285542037 -2442.5729733228973 2164.843097504758
    vertex 621.7833713935099 -2971.493500818646 1107.002042513259
    vertex 1779.1519619147455 -2448.7925941502913 1156.1630300350205
  endloop
endfacet
facet normal 0.20328734654822275 0.0660520628884413 0.9768886219634071
  outer loop
    vertex 1006.0666285542147 -326.89086333990076 3472.4065508643444
    vertex 621.7833713935154 855.8113908356414 3472.4065508643475
    vertex 0.0 0.0 3659.663107439707
  endloop
endfacet
facet normal -0.7396700014675506 0.6697103088492441 -0.06615429804664116
  outer loop
    vertex -1779.1519619147205 2448.792594150308 0.0
    vertex -2633.9166285019214 1509.5931175154428 49.16098752175943
    vertex -2249.633371341229 2038.5136450111956 1107.002042513259
  endloop
endfacet
facet normal -0.5349102429007829 -0.0414942775419148 0.8438893629920337
  outer loop
    vertex -1006.0666285542079 -326.8908633398989 3472.4065508643457
    vertex -1779.151961914748 578.0815150175213 3026.874109167793
    vertex -2012.1332571084135 -653.7817266797869 2818.624824184552
  endloop
endfacet
facet normal -0.7135995787194566 0.01656540717234976 0.7003579288739641
  outer loop
    vertex -1779.151961914748 578.0815150175213 3026.874109167793
    vertex -2633.9166285019287 202.02966415586275 2164.8430975047595
    vertex -2012.1332571084135 -653.7817266797869 2818.624824184552
  endloop
endfacet
facet normal -0.3822913298302001 0.12421398276090279 0.9156550800510701
  outer loop
    vertex -621.7833713935154 855.8113908356414 3472.4065508643466
    vertex -1779.151961914748 578.0815150175213 3026.874109167793
    vertex -1006.0666285542079 -326.8908633398989 3472.4065508643457
  endloop
endfacet
facet normal -0.3664806357824943 0.7181662868549041 0.5915480775232884
  outer loop
    vertex -1243.5667427870321 1711.6227816712894 2818.624824184553
    vertex -621.7833713935154 2567.4341725069353 2164.843097504758
    vertex -1620.0833176699705 2229.8533880979076 1956.2066987911328
  endloop
endfacet
facet normal -0.9920514442664136 0.10703990274135766 0.06615429804664218
  outer loop
    vertex -2878.728345529122 935.3555395663951 1156.1630300350205
    vertex -3018.1998856626215 326.8908633399071 49.160987521760575
    vertex -3018.1998856626215 -326.89086333988706 1107.00204251326
  endloop
endfacet
facet normal -0.5697679823307218 0.7842183497433469 0.2456949861853104
  outer loop
    vertex -1620.0833176699705 2229.8533880979076 1956.2066987911328
    vertex -1243.5667427870285 2769.4638366627923 1107.002042513259
    vertex -2249.633371341229 2038.5136450111956 1107.002042513259
  endloop
endfacet
facet normal -0.4083617525782858 0.9104198415462771 -0.06615429804663384
  outer loop
    vertex -1243.5667427870285 2769.4638366627923 1107.002042513259
    vertex -621.7833713935154 2971.493500818643 49.16098752175943
    vertex -1779.1519619147205 2448.792594150308 0.0
  endloop
endfacet
facet normal -0.569767982330724 0.570469384182253 0.5915480775232873
  outer loop
    vertex -1243.5667427870321 1711.6227816712894 2818.624824184553
    vertex -1620.0833176699705 2229.8533880979076 1956.2066987911328
    vertex -2249.633371341231 1384.7319183313994 2164.843097504758
  endloop
endfacet
facet normal -0.4083617525782939 0.3479819277779846 0.8438893629920345
  outer loop
    vertex -621.7833713935154 855.8113908356414 3472.4065508643466
    vertex -1243.5667427870321 1711.6227816712894 2818.624824184553
    vertex -1779.151961914748 578.0815150175213 3026.874109167793
  endloop
endfacet
facet normal -0.20328734654822248 0.06605206288844202 0.9768886219634071
  outer loop
    vertex 0.0 0.0 3659.663107439707
    vertex -621.7833713935154 855.8113908356414 3472.4065508643466
    vertex -1006.0666285542079 -326.8908633398989 3472.4065508643457
  endloop
endfacet
facet normal -0.9498686141589187 -0.30863102157368744 0.049965071381893225
  outer loop
    vertex -3018.1998856626215 -326.89086333988706 1107.00204251326
    vertex -2878.728345529142 -935.3555395663441 0.0
    vertex -2633.9166285019287 -1509.5931175154356 1107.002042513259
  endloop
endfacet
facet normal -0.5870510883969702 0.808006504462517 0.049965071381893184
  outer loop
    vertex -1243.5667427870285 2769.4638366627923 1107.002042513259
    vertex -1779.1519619147205 2448.792594150308 0.0
    vertex -2249.633371341229 2038.5136450111956 1107.002042513259
  endloop
endfacet
facet normal 0.9219039611125588 -0.08579578943951495 0.3777991119621963
  outer loop
    vertex 2633.9166285019264 202.0296641558509 2164.843097504758
    vertex 2621.349872596708 -851.7282043242893 1956.2066987911328
    vertex 3018.199885662619 -326.89086333990167 1107.002042513259
  endloop
endfacet
facet normal 0.7186166145643372 -0.3655968178890438 0.5915480775232864
  outer loop
    vertex 2012.133257108411 -653.7817266797988 2818.624824184552
    vertex 2012.133257108415 -1711.6227816713038 2164.8430975047595
    vertex 2621.349872596708 -851.7282043242893 1956.2066987911328
  endloop
endfacet
facet normal -0.8655029539439268 0.2812189568841509 0.4145124063322197
  outer loop
    vertex -2249.633371341231 1384.7319183313994 2164.843097504758
    vertex -2878.728345529122 935.3555395663951 1156.1630300350205
    vertex -2633.9166285019287 202.02966415586275 2164.8430975047595
  endloop
endfacet
facet normal -0.5349102429007878 -0.736240787403477 0.41451240633222125
  outer loop
    vertex -1006.0666285542153 -2442.5729733228973 2164.8430975047595
    vertex -2012.1332571084135 -1711.6227816712894 2164.843097504758
    vertex -1779.1519619147641 -2448.7925941502767 1156.1630300350205
  endloop
endfacet
facet normal -3.2945976448928216e-16 0.4019648919702659 0.9156550800510707
  outer loop
    vertex 621.7833713935154 855.8113908356414 3472.4065508643475
    vertex 0.0 1870.7110791327584 3026.874109167793
    vertex -621.7833713935154 855.8113908356414 3472.4065508643466
  endloop
endfacet
facet normal -0.2047597585667721 0.4959074352140481 0.8438893629920345
  outer loop
    vertex 0.0 1870.7110791327584 3026.874109167793
    vertex -1243.5667427870321 1711.6227816712894 2818.624824184553
    vertex -621.7833713935154 855.8113908356414 3472.4065508643466
  endloop
endfacet
facet normal 0.534910242900776 -0.7362407874034865 0.41451240633221964
  outer loop
    vertex 2012.133257108415 -1711.6227816713038 2164.8430975047595
    vertex 1006.0666285542037 -2442.5729733228973 2164.843097504758
    vertex 1779.1519619147455 -2448.7925941502913 1156.1630300350205
  endloop
endfacet
facet normal 0.5697679823307205 0.5704693841822571 0.5915480775232868
  outer loop
    vertex 2249.633371341245 1384.7319183313923 2164.8430975047595
    vertex 1620.0833176699705 2229.8533880979057 1956.2066987911328
    vertex 1243.5667427870335 1711.6227816712894 2818.624824184552
  endloop
endfacet
facet normal -0.12563848964957977 -0.17292654566898658 0.976888621963407
  outer loop
    vertex 0.0 0.0 3659.663107439707
    vertex -1006.0666285542079 -326.8908633398989 3472.4065508643457
    vertex -1.824662845956363e-12 -1057.8410549915034 3472.4065508643457
  endloop
endfacet
facet normal 1.502314644176596e-15 -0.9987509657776569 0.04996507138189351
  outer loop
    vertex -621.7833713935245 -2971.493500818648 1107.00204251326
    vertex -4.0142582611039987e-11 -3026.874109167806 0.0
    vertex 621.7833713935099 -2971.493500818646 1107.002042513259
  endloop
endfacet
facet normal -0.695406471980305 0.6112918040743573 0.3777991119621948
  outer loop
    vertex -1620.0833176699705 2229.8533880979076 1956.2066987911328
    vertex -2249.633371341229 2038.5136450111956 1107.002042513259
    vertex -2249.633371341231 1384.7319183313994 2164.843097504758
  endloop
endfacet
facet normal 3.1272698774360336e-19 0.9987509657776569 -0.049965071381894266
  outer loop
    vertex 1.277263992169454e-11 3026.874109167803 1156.1630300350205
    vertex 621.7833713935172 2971.493500818643 49.16098752175943
    vertex -621.7833713935154 2971.493500818643 49.16098752175943
  endloop
endfacet
facet normal -0.3664806357824952 0.8502704126317902 0.37779911196219595
  outer loop
    vertex -621.7833713935154 2567.4341725069353 2164.843097504758
    vertex -1243.5667427870285 2769.4638366627923 1107.002042513259
    vertex -1620.0833176699705 2229.8533880979076 1956.2066987911328
  endloop
endfacet
facet normal 0.366480635782497 0.8502704126317897 0.377799111962195
  outer loop
    vertex 621.7833713935172 2567.4341725069353 2164.843097504758
    vertex 1620.0833176699705 2229.8533880979057 1956.2066987911328
    vertex 1243.5667427870335 2769.4638366627887 1107.002042513259
  endloop
endfacet
facet normal 0.20328734654822345 -0.9032951265970388 0.3777991119621942
  outer loop
    vertex 1006.0666285542037 -2442.5729733228973 2164.843097504758
    vertex 0.0 -2756.2503675472317 1956.2066987911328
    vertex 621.7833713935099 -2971.493500818646 1107.002042513259
  endloop
endfacet
facet normal 2.7685702762684762e-17 0.9100436610386718 0.41451240633222464
  outer loop
    vertex 621.7833713935172 2567.4341725069353 2164.843097504758
    vertex 1.277263992169454e-11 3026.874109167803 1156.1630300350205
    vertex -621.7833713935154 2567.4341725069353 2164.843097504758
  endloop
endfacet
facet normal 0.5870510883969687 0.8080065044625178 0.049965071381892184
  outer loop
    vertex 2249.633371341245 2038.5136450111863 1107.00204251326
    vertex 1779.151961914786 2448.7925941502604 0.0
    vertex 1243.5667427870335 2769.4638366627887 1107.002042513259
  endloop
endfacet
facet normal 0.20475975856677417 0.9322204872234172 0.29839303690369723
  outer loop
    vertex 621.7833713935172 2567.4341725069353 2164.843097504758
    vertex 1243.5667427870335 2769.4638366627887 1107.002042513259
    vertex 1.277263992169454e-11 3026.874109167803 1156.1630300350205
  endloop
endfacet
facet normal 0.12563848964958022 -0.172926545668987 0.9768886219634069
  outer loop
    vertex 1006.0666285542147 -326.89086333990076 3472.4065508643444
    vertex 0.0 0.0 3659.663107439707
    vertex -1.824662845956363e-12 -1057.8410549915034 3472.4065508643457
  endloop
endfacet
facet normal -0.9498686141589189 0.09333387039658787 0.2983930369036921
  outer loop
    vertex -2878.728345529122 935.3555395663951 1156.1630300350205
    vertex -3018.1998856626215 -326.89086333988706 1107.00204251326
    vertex -2633.9166285019287 202.02966415586275 2164.8430975047595
  endloop
endfacet
facet normal 0.7962654714629819 -0.4724713006695874 0.37779911196219584
  outer loop
    vertex 2621.349872596708 -851.7282043242893 1956.2066987911328
    vertex 2012.133257108415 -1711.6227816713038 2164.8430975047595
    vertex 2633.9166285019264 -1509.5931175154503 1107.00204251326
  endloop
endfacet
facet normal 0.9498686141589187 -0.3086310215736874 0.04996507138189253
  outer loop
    vertex 3018.199885662619 -326.89086333990167 1107.002042513259
    vertex 2633.9166285019264 -1509.5931175154503 1107.00204251326
    vertex 2878.72834552912 -935.355539566418 0.0
  endloop
endfacet
facet normal 0.9498686141589182 0.0933338703965772 0.2983930369036972
  outer loop
    vertex 2878.728345529135 935.3555395663697 1156.1630300350205
    vertex 2633.9166285019264 202.0296641558509 2164.843097504758
    vertex 3018.199885662619 -326.89086333990167 1107.002042513259
  endloop
endfacet
facet normal 0.8655029539439306 0.28121895688413806 0.41451240633222064
  outer loop
    vertex 2249.633371341245 1384.7319183313923 2164.8430975047595
    vertex 2633.9166285019264 202.0296641558509 2164.843097504758
    vertex 2878.728345529135 935.3555395663697 1156.1630300350205
  endloop
endfacet
facet normal 0.9498686141589208 0.30863102157368105 -0.04996507138188988
  outer loop
    vertex 2633.9166285019373 1509.5931175154356 49.160987521760575
    vertex 2878.728345529135 935.3555395663697 1156.1630300350205
    vertex 3018.199885662619 326.89086333989434 49.16098752175943
  endloop
endfacet
facet normal -0.567577284328719 -0.4328450043345893 0.7003579288739623
  outer loop
    vertex -1099.576383614374 -1513.4370545838972 3026.874109167793
    vertex -2012.1332571084135 -653.7817266797869 2818.624824184552
    vertex -2012.1332571084135 -1711.6227816712894 2164.843097504758
  endloop
endfacet
facet normal -0.45714120136563613 -0.6292008846621238 0.6285922118149283
  outer loop
    vertex -1099.576383614374 -1513.4370545838972 3026.874109167793
    vertex -2012.1332571084135 -1711.6227816712894 2164.843097504758
    vertex -1006.0666285542153 -2442.5729733228973 2164.8430975047595
  endloop
endfacet
facet normal -0.38229132983020603 -0.874536983016753 0.2983930369036927
  outer loop
    vertex -1006.0666285542153 -2442.5729733228973 2164.8430975047595
    vertex -1779.1519619147641 -2448.7925941502767 1156.1630300350205
    vertex -621.7833713935245 -2971.493500818648 1107.00204251326
  endloop
endfacet
facet normal -0.7396700014675568 -0.669710308849238 0.06615429804663472
  outer loop
    vertex -2633.9166285019287 -1509.5931175154356 1107.002042513259
    vertex -2249.6333713412364 -2038.5136450111863 49.16098752175943
    vertex -1779.1519619147641 -2448.7925941502767 1156.1630300350205
  endloop
endfacet
facet normal -0.4571412013656345 -0.2808427763765445 0.8438893629920328
  outer loop
    vertex -1006.0666285542079 -326.8908633398989 3472.4065508643457
    vertex -2012.1332571084135 -653.7817266797869 2818.624824184552
    vertex -1099.576383614374 -1513.4370545838972 3026.874109167793
  endloop
endfacet
facet normal -0.8655029539439254 0.4965161080612557 0.06615429804663553
  outer loop
    vertex -2249.633371341229 2038.5136450111956 1107.002042513259
    vertex -2633.9166285019214 1509.5931175154428 49.16098752175943
    vertex -2878.728345529122 935.3555395663951 1156.1630300350205
  endloop
endfacet
facet normal 0.8655029539439294 0.496516108061248 0.06615429804664172
  outer loop
    vertex 2249.633371341245 2038.5136450111863 1107.00204251326
    vertex 2878.728345529135 935.3555395663697 1156.1630300350205
    vertex 2633.9166285019373 1509.5931175154356 49.160987521760575
  endloop
endfacet
facet normal 0.9219039611125586 -0.29954475500060523 0.24569498618531413
  outer loop
    vertex 3018.199885662619 -326.89086333990167 1107.002042513259
    vertex 2621.349872596708 -851.7282043242893 1956.2066987911328
    vertex 2633.9166285019264 -1509.5931175154503 1107.00204251326
  endloop
endfacet
facet normal -0.7962654714629783 -0.4724713006695934 0.37779911196219546
  outer loop
    vertex -2621.349872596707 -851.7282043242893 1956.2066987911328
    vertex -2633.9166285019287 -1509.5931175154356 1107.002042513259
    vertex -2012.1332571084135 -1711.6227816712894 2164.843097504758
  endloop
endfacet
facet normal -0.7962654714629779 -0.12661820933161833 0.5915480775232863
  outer loop
    vertex -2633.9166285019287 202.02966415586275 2164.8430975047595
    vertex -2621.349872596707 -851.7282043242893 1956.2066987911328
    vertex -2012.1332571084135 -653.7817266797869 2818.624824184552
  endloop
endfacet
facet normal -0.20475975856677206 0.683792521701615 0.7003579288739606
  outer loop
    vertex 0.0 1870.7110791327584 3026.874109167793
    vertex -621.7833713935154 2567.4341725069353 2164.843097504758
    vertex -1243.5667427870321 1711.6227816712894 2818.624824184553
  endloop
endfacet
facet normal -0.9219039611125581 -0.0857957894395178 0.37779911196219707
  outer loop
    vertex -2633.9166285019287 202.02966415586275 2164.8430975047595
    vertex -3018.1998856626215 -326.89086333988706 1107.00204251326
    vertex -2621.349872596707 -851.7282043242893 1956.2066987911328
  endloop
endfacet
facet normal -0.20475975856676995 0.9765741395929113 0.06615429804663686
  outer loop
    vertex 1.277263992169454e-11 3026.874109167803 1156.1630300350205
    vertex -621.7833713935154 2971.493500818643 49.16098752175943
    vertex -1243.5667427870285 2769.4638366627923 1107.002042513259
  endloop
endfacet
facet normal 0.56976798233072 0.7842183497433475 0.24569498618531319
  outer loop
    vertex 1620.0833176699705 2229.8533880979057 1956.2066987911328
    vertex 2249.633371341245 2038.5136450111863 1107.00204251326
    vertex 1243.5667427870335 2769.4638366627887 1107.002042513259
  endloop
endfacet
facet normal 0.6954064719802993 0.611291804074362 0.37779911196219773
  outer loop
    vertex 1620.0833176699705 2229.8533880979057 1956.2066987911328
    vertex 2249.633371341245 1384.7319183313923 2164.8430975047595
    vertex 2249.633371341245 2038.5136450111863 1107.00204251326
  endloop
endfacet
facet normal 0.7396700014675558 0.6697103088492389 -0.06615429804663554
  outer loop
    vertex 1779.151961914786 2448.7925941502604 0.0
    vertex 2249.633371341245 2038.5136450111863 1107.00204251326
    vertex 2633.9166285019373 1509.5931175154356 49.160987521760575
  endloop
endfacet
facet normal 0.3664806357824959 0.7181662868549039 0.5915480775232875
  outer loop
    vertex 1243.5667427870335 1711.6227816712894 2818.624824184552
    vertex 1620.0833176699705 2229.8533880979057 1956.2066987911328
    vertex 621.7833713935172 2567.4341725069353 2164.843097504758
  endloop
endfacet
facet normal -0.7186166145643341 -0.3655968178890486 0.5915480775232874
  outer loop
    vertex -2012.1332571084135 -653.7817266797869 2818.624824184552
    vertex -2621.349872596707 -851.7282043242893 1956.2066987911328
    vertex -2012.1332571084135 -1711.6227816712894 2164.843097504758
  endloop
endfacet
facet normal -0.1258329524763753 -0.5215523090735763 0.8438893629920331
  outer loop
    vertex -1.824662845956363e-12 -1057.8410549915034 3472.4065508643457
    vertex -1099.576383614374 -1513.4370545838972 3026.874109167793
    vertex -5.473988537869089e-12 -2115.6821099829986 2818.624824184552
  endloop
endfacet
facet normal -0.20475975856676829 0.9322204872234185 0.29839303690369673
  outer loop
    vertex -621.7833713935154 2567.4341725069353 2164.843097504758
    vertex 1.277263992169454e-11 3026.874109167803 1156.1630300350205
    vertex -1243.5667427870285 2769.4638366627923 1107.002042513259
  endloop
endfacet
facet normal -0.9920514442664153 -0.107039902741345 -0.06615429804663439
  outer loop
    vertex -3018.1998856626215 326.8908633399071 49.160987521760575
    vertex -2878.728345529142 -935.3555395663441 0.0
    vertex -3018.1998856626215 -326.89086333988706 1107.00204251326
  endloop
endfacet
facet normal -0.23626903543945976 -0.6735545370316184 0.7003579288739649
  outer loop
    vertex -5.473988537869089e-12 -2115.6821099829986 2818.624824184552
    vertex -1099.576383614374 -1513.4370545838972 3026.874109167793
    vertex -1006.0666285542153 -2442.5729733228973 2164.8430975047595
  endloop
endfacet
facet normal -0.23626903543946076 -0.32519642874603677 0.9156550800510698
  outer loop
    vertex -1.824662845956363e-12 -1057.8410549915034 3472.4065508643457
    vertex -1006.0666285542079 -326.8908633398989 3472.4065508643457
    vertex -1099.576383614374 -1513.4370545838972 3026.874109167793
  endloop
endfacet
facet normal -0.8655029539439287 -0.4965161080612489 -0.06615429804664098
  outer loop
    vertex -2878.728345529142 -935.3555395663441 0.0
    vertex -2249.6333713412364 -2038.5136450111863 49.16098752175943
    vertex -2633.9166285019287 -1509.5931175154356 1107.002042513259
  endloop
endfacet
facet normal -0.5870510883969728 0.40604161249224874 0.7003579288739611
  outer loop
    vertex -1243.5667427870321 1711.6227816712894 2818.624824184553
    vertex -2249.633371341231 1384.7319183313994 2164.843097504758
    vertex -1779.151961914748 578.0815150175213 3026.874109167793
  endloop
endfacet
facet normal -0.20475975856677753 -0.9765741395929097 -0.06615429804663477
  outer loop
    vertex -621.7833713935245 -2971.493500818648 1107.00204251326
    vertex -1243.5667427870394 -2769.463836662794 49.160987521760575
    vertex -4.0142582611039987e-11 -3026.874109167806 0.0
  endloop
endfacet
facet normal 0.7135995787194555 -0.6338274503197294 0.2983930369036899
  outer loop
    vertex 2633.9166285019264 -1509.5931175154503 1107.00204251326
    vertex 2012.133257108415 -1711.6227816713038 2164.8430975047595
    vertex 1779.1519619147455 -2448.7925941502913 1156.1630300350205
  endloop
endfacet
facet normal -0.7135995787194602 -0.6338274503197208 0.29839303690369695
  outer loop
    vertex -2633.9166285019287 -1509.5931175154356 1107.002042513259
    vertex -1779.1519619147641 -2448.7925941502767 1156.1630300350205
    vertex -2012.1332571084135 -1711.6227816712894 2164.843097504758
  endloop
endfacet
facet normal 0.1256384896495809 -0.7964206438164911 0.591548077523288
  outer loop
    vertex -5.473988537869089e-12 -2115.6821099829986 2818.624824184552
    vertex 0.0 -2756.2503675472317 1956.2066987911328
    vertex 1006.0666285542037 -2442.5729733228973 2164.843097504758
  endloop
endfacet
facet normal 0.4571412013656341 -0.28084277637654537 0.8438893629920328
  outer loop
    vertex 2012.133257108411 -653.7817266797988 2818.624824184552
    vertex 1006.0666285542147 -326.89086333990076 3472.4065508643444
    vertex 1099.576383614374 -1513.4370545839008 3026.874109167793
  endloop
endfacet
facet normal 0.73967000146755 -0.6697103088492444 0.06615429804664297
  outer loop
    vertex 2633.9166285019264 -1509.5931175154503 1107.00204251326
    vertex 1779.1519619147455 -2448.7925941502913 1156.1630300350205
    vertex 2249.6333713412378 -2038.513645011201 49.160987521760575
  endloop
endfacet
facet normal 0.23626903543945918 -0.3251964287460366 0.9156550800510701
  outer loop
    vertex 1099.576383614374 -1513.4370545839008 3026.874109167793
    vertex 1006.0666285542147 -326.89086333990076 3472.4065508643444
    vertex -1.824662845956363e-12 -1057.8410549915034 3472.4065508643457
  endloop
endfacet
facet normal 0.5675772843287159 -0.43284500433458756 0.700357928873966
  outer loop
    vertex 2012.133257108415 -1711.6227816713038 2164.8430975047595
    vertex 2012.133257108411 -653.7817266797988 2818.624824184552
    vertex 1099.576383614374 -1513.4370545839008 3026.874109167793
  endloop
endfacet
facet normal -0.9498686141589161 0.3086310215736956 -0.049965071381889506
  outer loop
    vertex -2633.9166285019214 1509.5931175154428 49.16098752175943
    vertex -3018.1998856626215 326.8908633399071 49.160987521760575
    vertex -2878.728345529122 935.3555395663951 1156.1630300350205
  endloop
endfacet
facet normal -0.82332012383643 0.48281007571648205 0.2983930369036962
  outer loop
    vertex -2249.633371341229 2038.5136450111956 1107.002042513259
    vertex -2878.728345529122 935.3555395663951 1156.1630300350205
    vertex -2249.633371341231 1384.7319183313994 2164.843097504758
  endloop
endfacet
facet normal 0.4083617525782895 -0.9104198415462753 0.06615429804663635
  outer loop
    vertex 1779.1519619147455 -2448.7925941502913 1156.1630300350205
    vertex 621.7833713935099 -2971.493500818646 1107.002042513259
    vertex 1243.5667427870262 -2769.463836662794 49.16098752175943
  endloop
endfacet
facet normal -0.5870510883969773 -0.8080065044625117 -0.0499650713818915
  outer loop
    vertex -1779.1519619147641 -2448.7925941502767 1156.1630300350205
    vertex -2249.6333713412364 -2038.5136450111863 49.16098752175943
    vertex -1243.5667427870394 -2769.463836662794 49.160987521760575
  endloop
endfacet
facet normal 0.20475975856676698 -0.9765741395929116 -0.06615429804663933
  outer loop
    vertex 621.7833713935099 -2971.493500818646 1107.002042513259
    vertex -4.0142582611039987e-11 -3026.874109167806 0.0
    vertex 1243.5667427870262 -2769.463836662794 49.16098752175943
  endloop
endfacet
facet normal 1.6000056653040281e-15 -0.9693471894854799 0.24569498618531266
  outer loop
    vertex 0.0 -2756.2503675472317 1956.2066987911328
    vertex -621.7833713935245 -2971.493500818648 1107.00204251326
    vertex 621.7833713935099 -2971.493500818646 1107.002042513259
  endloop
endfacet
facet normal 0.1258329524763727 -0.521552309073577 0.8438893629920329
  outer loop
    vertex 1099.576383614374 -1513.4370545839008 3026.874109167793
    vertex -1.824662845956363e-12 -1057.8410549915034 3472.4065508643457
    vertex -5.473988537869089e-12 -2115.6821099829986 2818.624824184552
  endloop
endfacet
facet normal 0.4571412013656252 -0.6292008846621316 0.6285922118149284
  outer loop
    vertex 1099.576383614374 -1513.4370545839008 3026.874109167793
    vertex 1006.0666285542037 -2442.5729733228973 2164.843097504758
    vertex 2012.133257108415 -1711.6227816713038 2164.8430975047595
  endloop
endfacet
facet normal -0.12563848964957913 -0.7964206438164921 0.591548077523287
  outer loop
    vertex -5.473988537869089e-12 -2115.6821099829986 2818.624824184552
    vertex -1006.0666285542153 -2442.5729733228973 2164.8430975047595
    vertex 0.0 -2756.2503675472317 1956.2066987911328
  endloop
endfacet
facet normal 0.23626903543945776 -0.673554537031622 0.7003579288739621
  outer loop
    vertex 1099.576383614374 -1513.4370545839008 3026.874109167793
    vertex -5.473988537869089e-12 -2115.6821099829986 2818.624824184552
    vertex 1006.0666285542037 -2442.5729733228973 2164.843097504758
  endloop
endfacet
facet normal 0.20475975856677225 0.6837925217016146 0.7003579288739609
  outer loop
    vertex 1243.5667427870335 1711.6227816712894 2818.624824184552
    vertex 621.7833713935172 2567.4341725069353 2164.843097504758
    vertex 0.0 1870.7110791327584 3026.874109167793
  endloop
endfacet
facet normal -1.8956526969658083e-17 0.7777350649453976 0.6285922118149243
  outer loop
    vertex 0.0 1870.7110791327584 3026.874109167793
    vertex 621.7833713935172 2567.4341725069353 2164.843097504758
    vertex -621.7833713935154 2567.4341725069353 2164.843097504758
  endloop
endfacet
endsolid Untitled-5fdca6cb
